<svg width="23" height="18" viewBox="0 0 23 18" fill="none" xmlns="http://www.w3.org/2000/svg">
<g clip-path="url(#clip0_11_266)">
<path d="M20.1006 8.39355C20.1973 8.04639 20.25 7.68604 20.25 7.3125C20.25 5.13721 18.4878 3.375 16.3125 3.375C15.7236 3.375 15.1567 3.50244 14.625 3.75293C13.5132 2.1709 11.6631 1.125 9.5625 1.125C6.24463 1.125 3.52441 3.74414 3.38379 7.04004C1.37988 7.74316 0 9.6416 0 11.8125C0 14.6118 2.26318 16.875 5.0625 16.875H18C20.4873 16.875 22.5 14.8623 22.5 12.375C22.5 10.7227 21.5947 9.18457 20.1006 8.39355ZM17.8432 15.75H5.25488C3.20495 15.75 1.35577 14.2677 1.14641 12.2285C0.942047 10.2381 2.22416 8.5056 4.01738 8.01475C4.31153 7.93424 4.50176 7.65404 4.50011 7.34906C4.50004 7.33728 4.5 7.32551 4.5 7.3137C4.49961 5.17992 5.80532 3.21244 7.82961 2.53775C10.3423 1.70033 12.7236 2.77429 13.8863 4.67852C14.0967 5.02313 14.5316 5.10012 14.8784 4.8934C15.472 4.53959 16.2066 4.39882 16.9857 4.57741C17.9297 4.7938 18.7241 5.52663 18.9986 6.45529C19.2025 7.1447 19.15 7.81724 18.9105 8.39443C18.765 8.74494 18.9829 9.12396 19.3318 9.2732C20.6445 9.83482 21.5262 11.2089 21.3534 12.7623C21.1607 14.4956 19.5872 15.75 17.8432 15.75Z" fill="black"/>
</g>
<defs>
<clipPath id="clip0_11_266">
<rect width="22.5" height="18" fill="white"/>
</clipPath>
</defs>
</svg>
