<svg width="178" height="160" viewBox="0 0 178 160" fill="none" xmlns="http://www.w3.org/2000/svg">
<g clip-path="url(#clip0_55_2)">
<path d="M177.778 79.9981C177.778 78.6122 177.213 77.2328 176.104 76.245L158.008 60.0781L148.148 51.2694L128.395 33.6225L118.519 24.7991L92.154 1.245C91.2232 0.415 90.0562 0 88.8892 0C87.7222 0 86.5549 0.415 85.6241 1.245L1.67407 76.245C0.565432 77.2328 0 78.6122 0 79.9981C0 82.7869 2.23549 84.9928 4.9537 84.9928C6.11358 84.9928 7.27469 84.5825 8.2037 83.745L19.7537 73.4269V134.995C19.7537 148.784 30.8309 159.995 44.4448 159.995V149.995C36.2756 149.995 29.6302 143.267 29.6302 134.995L29.5639 64.6631L88.8892 11.665L148.214 64.6631C148.214 64.5453 148.206 64.7791 148.214 64.6631L148.148 134.995C148.148 143.267 141.502 149.995 133.333 149.995V159.995C146.947 159.995 158.024 148.784 158.024 134.995V73.4269L169.574 83.745C170.51 84.585 171.677 84.995 172.839 84.995C175.533 84.995 177.778 82.7909 177.778 79.9981Z" fill="black"/>
<path d="M44.4448 149.995V159.995H67.1353C71.7857 159.995 75.5556 156.225 75.5556 151.575V120C75.5556 112.636 81.5251 106.667 88.8889 106.667V106.667C96.2527 106.667 102.222 112.636 102.222 120V151.575C102.222 156.225 105.992 159.995 110.643 159.995H133.333V149.995H111.111V120C111.111 107.727 101.162 97.7778 88.8889 97.7778V97.7778C76.6159 97.7778 66.6667 107.727 66.6667 120V149.995H44.4448Z" fill="black"/>
</g>
<defs>
<clipPath id="clip0_55_2">
<rect width="177.778" height="160" fill="white"/>
</clipPath>
</defs>
</svg>
