<svg width="24" height="24" viewBox="0 0 24 24" fill="none" xmlns="http://www.w3.org/2000/svg">
<g clip-path="url(#clip0_11_1007)">
<path d="M23.1193 2.63728L21.3612 0.878812C20.7755 0.293062 20.0077 0 19.2399 0C18.472 0 17.7045 0.292969 17.1185 0.878906L3.75 14.2493L1.45486 16.5448C1.35009 16.6495 1.2788 16.7828 1.24969 16.928L0.0149983 23.1025C-0.0798767 23.5766 0.288561 24 0.74742 24C0.796592 24 0.846655 23.9951 0.897373 23.985L7.07133 22.7501C7.21655 22.7211 7.34981 22.6498 7.45458 22.5451C7.45458 22.5451 8.36864 21.6311 9.74962 20.25C14.0659 15.9336 22.9812 7.0178 23.1235 6.87544C24.295 5.70394 24.2908 3.80888 23.1193 2.63728ZM5.25 14.8705L14.7793 5.33991L18.6586 9.21919L9.12825 18.75L7.14446 16.7866L5.25 14.8705ZM6.55462 21.3237L1.70644 22.2935L2.67595 17.4449L3.75 16.3707L5.64446 18.2866L7.62825 20.25L6.55462 21.3237ZM22.0628 5.8148L19.7191 8.15864L15.8398 4.27927L18.1792 1.93955C18.4627 1.65609 18.8393 1.5 19.2399 1.5C19.6404 1.5 20.0171 1.656 20.3004 1.93936L22.0586 3.69783C22.6433 4.28264 22.6453 5.23233 22.0628 5.8148Z" fill="black"/>
</g>
<defs>
<clipPath id="clip0_11_1007">
<rect width="24" height="24" fill="white"/>
</clipPath>
</defs>
</svg>
