<svg width="8" height="8" viewBox="0 0 8 8" fill="none" xmlns="http://www.w3.org/2000/svg">
<path d="M1.25933 7.3535C1.24552 7.36731 1.22883 7.37756 1.21012 7.38336L0.404808 7.63871C0.306069 7.67014 0.209223 7.57363 0.240824 7.47472L0.496168 6.66941C0.500981 6.65385 0.514462 6.63177 0.52603 6.6202L1.32152 5.82471L2.05482 6.558L1.25933 7.3535ZM2.34859 3.10119L3.79561 1.93488L3.31188 1.45114C3.16006 1.29933 3.15566 1.05739 3.30206 0.910993L3.83239 0.380663C3.97878 0.23427 4.22072 0.238669 4.37254 0.390484L7.48905 3.50699C7.64086 3.65881 7.64526 3.90075 7.49887 4.04714L6.96854 4.57747C6.82214 4.72387 6.5802 4.71947 6.42839 4.56765L5.94465 4.08392L4.77834 5.53094C5.08494 6.33574 5.06729 7.21201 4.50676 7.77255C4.36036 7.91894 4.11842 7.91454 3.96661 7.76273L0.116802 3.91292C-0.035013 3.76111 -0.039412 3.51917 0.106981 3.37277C0.672534 2.80722 1.5521 2.79773 2.34859 3.10119Z" fill="black"/>
</svg>
