<svg width="149" height="40" viewBox="0 0 149 40" fill="none" xmlns="http://www.w3.org/2000/svg">
<path d="M15.9926 37.08C15.9926 38.616 15.0326 39.384 13.1126 39.384C11.2246 39.384 10.2806 38.616 10.2806 37.08V5.736H1.88056C0.728563 5.736 0.120563 4.92 0.0565631 3.288C0.0565631 1.688 0.664563 0.887999 1.88056 0.887999H24.3926C25.6086 0.887999 26.1846 1.688 26.1206 3.288C26.1206 4.92 25.5446 5.736 24.3926 5.736H15.9926V37.08ZM40.6349 36.984C40.6349 38.52 39.6749 39.288 37.7549 39.288C35.8669 39.288 34.9229 38.52 34.9229 36.984V2.952C34.9229 1.416 35.8669 0.647999 37.7549 0.647999C39.6749 0.647999 40.6349 1.416 40.6349 2.952V36.984ZM65.4607 37.08C65.4607 38.616 64.5007 39.384 62.5807 39.384C60.6927 39.384 59.7487 38.616 59.7487 37.08V5.736H51.3487C50.1967 5.736 49.5887 4.92 49.5247 3.288C49.5247 1.688 50.1327 0.887999 51.3487 0.887999H73.8607C75.0767 0.887999 75.6527 1.688 75.5887 3.288C75.5887 4.92 75.0127 5.736 73.8607 5.736H65.4607V37.08ZM96.8231 5.592L86.3111 37.848V37.8C86.1191 38.28 85.8471 38.68 85.4951 39C85.1751 39.288 84.7751 39.432 84.2951 39.432C84.0391 39.432 83.7831 39.4 83.5271 39.336C83.3031 39.304 83.0631 39.256 82.8071 39.192H82.8551C81.0311 38.616 80.3591 37.592 80.8391 36.12L91.7831 2.856C91.9431 2.344 92.2151 1.912 92.5991 1.56C93.0151 1.208 93.4951 0.999999 94.0391 0.935998C94.5831 0.839997 95.1111 0.775997 95.6231 0.743998C96.1351 0.679998 96.5351 0.647999 96.8231 0.647999C97.1111 0.647999 97.5111 0.679998 98.0231 0.743998C98.5351 0.775997 99.0631 0.823997 99.6071 0.887999C100.055 0.951998 100.487 1.192 100.903 1.608C101.351 2.024 101.687 2.44 101.911 2.856C103.703 8.36 105.511 13.912 107.335 19.512C109.191 25.08 111.015 30.616 112.807 36.12C113.255 37.592 112.583 38.616 110.791 39.192C110.535 39.256 110.295 39.304 110.071 39.336C109.879 39.4 109.655 39.432 109.399 39.432C108.951 39.432 108.535 39.288 108.151 39C107.799 38.68 107.543 38.28 107.383 37.8V37.848L96.8231 5.592ZM100.423 27.48C100.423 28.504 100.055 29.384 99.3191 30.12C98.6151 30.824 97.7511 31.176 96.7271 31.176C95.7031 31.176 94.8391 30.824 94.1351 30.12C93.4311 29.384 93.0791 28.504 93.0791 27.48C93.0791 26.456 93.4311 25.592 94.1351 24.888C94.8391 24.152 95.7031 23.784 96.7271 23.784C97.7511 23.784 98.6151 24.152 99.3191 24.888C100.055 25.592 100.423 26.456 100.423 27.48ZM142.689 2.952C142.689 1.416 143.633 0.647999 145.521 0.647999C147.409 0.647999 148.353 1.416 148.353 2.952V36.072C148.353 37.192 147.761 38.008 146.577 38.52H146.625C146.113 38.744 145.569 38.92 144.993 39.048C144.417 39.176 143.857 39.24 143.313 39.24C142.897 39.24 142.465 39.192 142.017 39.096C141.569 39.032 141.137 38.92 140.721 38.76C140.337 38.568 139.969 38.328 139.617 38.04C139.297 37.72 139.041 37.336 138.849 36.888L128.433 10.92L127.137 11.064V36.984C127.137 38.52 126.177 39.288 124.257 39.288C122.369 39.288 121.425 38.52 121.425 36.984V3.912C121.425 2.6 122.001 1.72 123.153 1.272C124.209 0.855999 125.329 0.647999 126.513 0.647999C127.345 0.647999 128.177 0.823998 129.009 1.176C129.873 1.496 130.529 2.12 130.977 3.048L141.345 29.064L142.689 28.92V2.952Z" fill="black"/>
</svg>
